<?xml version="1.0" encoding="UTF-8"?>
<svg id="Layer_2" data-name="Layer 2" xmlns="http://www.w3.org/2000/svg" viewBox="0 0 905.81 922.11">
  <defs>
    <style>
      .cls-1 {
        fill: #fff;
        stroke-width: 0px;
      }
    </style>
  </defs>
  <g id="Layer_1-2" data-name="Layer 1">
    <g id="tK2185.tif">
      <g>
        <path class="cls-1" d="M696.42,80.28c.23-1.81.43-2.85.47-3.9.32-7.32.06-14.71,1.03-21.94,1.49-11.07,4.48-21.8,11.51-30.86,1.89-2.44,3.88-5.31,8.19-4.02,2.25,7.47,4.51,14.98,6.89,22.9,3.15-5.29,5.76-10.89,11.43-14.25,5.56,4.71,9.56,10.51,10.71,17.6,1.24,7.59,1.43,15.35,2.16,23.03.18,1.94.66,3.86,1.13,6.48,1.49-2.43,2.52-4.31,3.75-6.04.92-1.3,1.91-2.76,3.23-3.51,1.43-.82,3.5-1.57,4.89-1.12,1.21.39,2.53,2.45,2.63,3.86.34,4.39-.1,8.84.17,13.24.9,14.61-2.56,28.41-7.38,41.99-.43,1.22-.71,2.49-1.18,4.17,2.59,1.84,5.28,3.67,7.88,5.61,14.96,11.17,29.91,22.33,43.35,35.4,19.65,19.1,36.54,40.28,49.87,64.25,6.67,12,12.35,24.45,16.24,37.64,4.07,13.84,6.14,28.01,5.05,42.44-1.4,18.51-8.97,34.35-21.92,47.59-14.93,15.27-33.13,25.16-53.36,31.31-10.39,3.16-20.98,5.91-31.67,7.77-15.47,2.7-31.23,3.2-46.85,2.06-24.76-1.81-48.79-7.34-71.89-16.65-15.22-6.13-29.69-13.62-42.66-23.69-9.3-7.22-17.93-15.31-24.23-25.37-2.71-4.33-4.11-9.48-6.09-14.27-.37-.89-.69-1.81-1.24-3.28-2.86.64-5.62.99-8.2,1.89-7.27,2.53-14.43,5.39-21.7,7.91-6.57,2.28-13.38,3.01-20.9,2.54.79-4,1.55-7.83,2.44-12.35-5.47,1.87-9.94,3.51-14.48,4.91-5.04,1.55-10.2,2.25-15.36.57-1.23-.4-2.3-1.31-4.1-2.38,2.27-4.28,4.33-8.16,6.62-12.49-12.79,1.18-25.11.3-36.91-5.05,4.56-12.68,15.02-17.07,26.11-20.67-.02-.28-.03-.56-.05-.84-2.29-.49-4.57-1.02-6.87-1.48-5.4-1.06-10.83-1.95-16.19-3.19-2.54-.59-4.92-1.82-6.06-5.41,1.26-1.39,2.6-3.23,4.3-4.64,5.43-4.52,11.99-6.8,18.67-8.59,7.8-2.09,15.6-4.42,23.55-5.63,6.6-1.01,13.46-1.04,20.15-.62,9.67.61,19.31,1.89,28.93,3.13,5.15.66,10.23,1.86,15.35,2.73,1.44.25,2.93.23,5.07.38-.34-2.27-.6-4.04-.89-6.02-17.77-4.14-33.26-12.06-45.93-25-1.11-1.13-1.7-2.77-3-4.96,4.86-1.81,9.09-3.39,13.62-5.07.19-2.15-2.04-2.79-3.57-3.8-5.6-3.7-11.4-7.1-16.88-10.96-5.27-3.71-10.13-7.95-13.25-13.77-.5-.93-.85-1.94-1.45-3.33,9.44-2.4,18.19-.61,27.2,1.22-8.26-9.09-17.49-17.43-20.64-30.49,1.31-.29,2.68-.77,4.07-.87,17.18-1.14,32.84,4.17,47.84,11.74,9.2,4.64,18.07,9.92,27.12,14.85,2.26,1.23,4.64,2.23,6.97,3.34,1.95-2.15,1.46-3.61-.11-5.45-10.98-12.82-25.55-20.2-40.53-26.92-12.65-5.67-25.94-9-39.86-8.61-4.07.12-8.48,1.26-12.03,3.21-4.86,2.67-6.55,5.8-3.34,13.08,1.49,3.39,3.35,6.62,5.05,9.92.49.95,1.01,1.89,1.57,2.93-3.04.95-5.81,1.66-8.47,2.68-2.98,1.15-4.36,3.5-4.74,6.7-.74,6.24,1.81,11.34,5.81,15.57,4.94,5.23,10.45,9.93,15.72,14.85.79.74,1.62,1.45,2.56,2.29-.59.93-1.07,1.67-1.54,2.42-2.07,3.23-1.93,6.62.06,9.65,2.4,3.67,5.2,7.09,7.96,10.51.65.81,1.82,1.2,2.75,1.79-.23.32-.46.64-.69.95-.64.09-1.28.28-1.92.27-10.69-.24-21.25.93-31.67,3.15-12.22,2.61-23.85,6.9-34.2,14.02-2.84,1.95-5.38,4.62-7.43,7.41-4.48,6.08-2.67,13.51,4,17.89,1.55,1.02,3.16,1.93,4.58,2.79-2.76,4.59-5.32,8.85-8.45,14.05-49.8,4.73-97.24-5.03-141.84-30.34,8.64-15.38,13.81-30.82,11.1-47.97-1.1-6.93-2.32-13.86-7.29-20.26-.46,4.69-.94,8.61-1.18,12.55-.18,2.91-.16,5.84-.02,8.75.82,16.06-4.47,30.32-12.63,43.79-6.49,10.72-13.86,20.81-23.74,28.57-7.62,5.98-15.85,11.21-24.04,16.42-6.22,3.95-12.8,7.34-19.77,11.29,1.29,1.37,2.03,2.37,2.97,3.14,9.14,7.44,17.13,15.84,21.8,26.86,4.23,9.98,5.14,20.35,2.24,30.83-.6,2.16-2.14,4.47-3.92,5.81-3.53,2.65-7.93.61-11.36-3.96-4.02-5.36-8.49-10.39-12.79-15.54-.35-.42-.87-.7-1.81-1.45,0,1.57-.07,2.59.01,3.61.92,11.2-1.82,21.32-9.18,29.93-1.86,2.17-4.16,4.12-6.59,5.61-2.98,1.83-5.32.7-6.03-2.73-.65-3.11-.95-6.3-1.17-9.48-.41-6-.6-12.02-.99-18.02-.08-1.18-.65-2.33-.93-3.28-5.28,6.24-10.14,12.46-15.52,18.19-3.46,3.69-7.92,6.21-13.24,6.34-3.85.09-6.42-2.05-6.04-5.85.51-5.13,1.2-10.42,2.99-15.2,3.95-10.54,3.6-20.69-.61-30.98-3.84-9.41-3.41-19.09-1.93-28.96,2.03-13.5,8.32-25.04,15.97-35.9,7.51-10.66,15.56-20.93,23.34-31.39.69-.93,1.22-1.98,2.19-3.57-1.31.18-1.96.16-2.52.37-10.97,4.17-20.68,10.56-30.08,17.43-13.67,9.99-26.1,21.39-37.73,33.66-9.82,10.36-18.8,21.41-26.88,33.19-10.56,15.41-19.83,31.58-27.62,48.53-8.15,17.72-15.75,35.69-23.41,53.62-7.1,16.63-13.85,33.41-20.98,50.02-2.28,5.32-4.82,10.65-9.73,14.26-6.1,4.48-13.65,3.53-17.06-3.14-4.3-8.42-8.31-17.15-11.01-26.17-3.16-10.58-5.81-21.52-6.82-32.48C0,422.51.19,407.29,0,392.13c-.07-6.21.45-12.44,1.08-18.63.68-6.66,1.74-13.28,2.77-19.9.97-6.21,1.95-12.43,3.23-18.59,1.69-8.1,3.57-16.17,5.57-24.21,1.62-6.48,3.38-12.94,5.35-19.33,9.18-29.79,21.69-58.11,38.23-84.56,10.7-17.12,22.72-33.3,35.91-48.63,13.59-15.79,28.13-30.65,43.84-44.29,20.27-17.6,41.89-33.43,65.19-46.79,15.91-9.12,31.93-18.18,48.5-25.99,13.33-6.28,27.43-11.03,41.43-15.73,11.52-3.87,23.33-6.99,35.15-9.85,11.64-2.81,23.45-4.89,35.19-7.22,6.56-1.3,13.13-2.65,19.75-3.62,9.11-1.34,18.24-2.8,27.42-3.39,13.73-.89,27.5-1.55,41.25-1.4,12.52.14,25.05,1.23,37.53,2.38,10.85,1,21.69,2.35,32.44,4.12,11.23,1.85,22.38,4.2,33.49,6.69,9.25,2.07,18.44,4.48,27.57,7.03,19.32,5.39,37.92,12.78,55.8,21.78,12.76,6.43,25.22,13.53,37.43,20.96,6.29,3.83,11.74,9.05,17.58,13.64,1.38,1.09,2.78,2.16,4.72,3.66ZM40.07,405.73c.19.06.38.12.57.18.49-.81,1.11-1.57,1.45-2.44,2.54-6.51,4.82-13.12,7.58-19.54,13.72-31.93,30.07-62.44,49.28-91.43,12.56-18.96,26.46-36.87,42.21-53.25,9.87-10.27,20.3-20.07,31.01-29.46,8.27-7.25,17.3-13.65,26.14-20.23,4.5-3.35,9.35-6.23,13.98-9.4.77-.53,1.23-1.51,1.84-2.28-.31-.39-.62-.77-.92-1.16-7.54,3.39-15.24,6.47-22.59,10.24-13.72,7.05-25.77,16.52-37.61,26.35-18.66,15.49-35.1,33.04-49.71,52.31-12.38,16.32-23.34,33.59-32.97,51.68-9.05,17-15.99,34.87-21.44,53.3-2.88,9.75-5.19,19.66-7.71,29.51-.47,1.84-.74,3.74-1.1,5.61ZM717.7,306.27c-.37,8.99,7.57,17.05,15.94,16.99,7.76-.06,13.75-6.28,13.81-14.47.06-8.94-7.55-17.69-15.32-17.62-8.04.07-14.42,6.76-14.42,15.11ZM854.4,279.51c-.36-6.32-2.9-11.69-5.89-16.73-1.29-2.16-3.82-3.85-6.15-5.03-1.3-.66-3.75-.42-4.98.43-3.44,2.38-5.44,6.22-4.31,10.18,1.82,6.38,4.28,12.65,7.14,18.65,2.19,4.6,9.44,4.32,11.82-.24,1.16-2.23,1.61-4.83,2.38-7.26Z"/>
        <path class="cls-1" d="M314.85,667.92c-1.07,3.28-2.07,6.32-3.32,10.15,6.42,2.35,12.42,5.29,18.77,6.68,8.26,1.8,16.78,3.14,25.2,3.24,9.05.1,17.84-2.37,25.44-7.81,3.24-2.32,5.62-5.19,5.19-9.91,2.09-.72,4.21-1.49,6.35-2.17,7.23-2.31,14.08-5.25,19.37-10.99,5.41-5.88,5.55-9.85.48-16.11-.23-.28-.34-.66-.76-1.53,2.03,0,3.68-.02,5.34,0,14.07.24,28.16.07,42.2.86,11.19.63,22.33,2.33,33.47,3.72,7.04.88,14.08,1.89,21.07,3.16,7.65,1.39,15.25,3.12,22.85,4.75,7.79,1.68,15.59,3.37,23.36,5.16,7.78,1.79,15.52,3.76,23.3,5.56,6.79,1.57,13.59,3.11,20.42,4.5,5.76,1.18,11.55,2.27,17.37,3.13,5.34.79,10.73,1.66,16.11,1.71,8.52.09,17.14.21,25.53-.98,6.61-.94,13.23-3.19,19.33-6,12.46-5.73,24.72-11.94,36.78-18.48,13.04-7.08,23.56-17.21,33.1-28.53,21.65-25.73,38.84-54.24,53.53-84.37,10.58-21.7,19.34-44.13,27.41-66.85,4.71-13.27,9.2-26.63,14.2-39.79,1.68-4.42,4.31-8.6,7.1-12.46,2.98-4.12,7.55-6.23,12.53-7.07,5.07-.86,9.53.92,11.79,5.43,4.43,8.82,8.67,17.79,12.19,27,3.16,8.27,5.42,16.9,7.74,25.47,1.43,5.28,2.33,10.72,3.3,16.11,1.03,5.7,1.93,11.43,2.76,17.16.55,3.77,1.2,7.56,1.23,11.35.14,14.67.52,29.36-.12,44-.45,10.16-2.13,20.3-3.81,30.35-2.01,12.01-4.18,24.02-7.11,35.83-2.56,10.33-6.09,20.44-9.5,30.53-5.78,17.1-13.15,33.55-22.01,49.25-6.59,11.69-13.69,23.13-21.2,34.25-12.34,18.28-26.83,34.81-42.7,50.14-12.38,11.96-25.84,22.53-40.16,32.04-1.34.89-2.65,1.82-3.93,2.79-.47.35-.83.85-1.4,1.46.56,3.51,3.17,5.42,5.95,6.9,1.81.96,4,1.62,6.04,1.66,11.33.19,22.16,2.98,32.97,5.99,5.18,1.44,7.85,4.24,8.24,8.39.2,2.18-.45,3.98-2.59,4.52-3.37.84-6.84,1.26-10.25,1.92-2.66.51-5.3,1.1-7.95,2.18,10.2,4.61,21.33,7.3,26.91,18.25-1.48,3.61-4.42,4.63-7.42,4.52-5.3-.2-10.56-1.17-15.86-1.49-4.42-.26-8.88-.05-12.93-.05,4.09,4.2,8.31,8.45,12.42,12.8,2.4,2.54,3.94,5.45,3.81,9.16-.25,7.21-4.19,8.2-9.64,5.99-3.46-1.4-6.34-4.16-9.65-6.02-4.7-2.64-9.44-5.26-14.37-7.42-7.74-3.39-15.75-2.25-23.62-.39-8.45,1.99-16.72,5.03-25.26,6.25-10.74,1.53-21.05-1.03-30.74-6.21-6.82-3.64-11.64-9.05-15.66-15.41-1.31-2.07-2.83-4.01-4.25-6.01-.25.09-.49.18-.74.26v10.76c-15.28,6.61-30.44,13.62-45.97,19.72-11.59,4.56-23.57,8.22-35.53,11.73-7.74,2.27-15.75,3.64-23.67,5.26-6.75,1.38-13.52,2.71-20.32,3.78-6.03.95-12.12,1.56-18.2,2.21-21.62,2.33-43.33,2.48-65.03,2.03-7.2-.15-14.39-1.13-21.57-1.82-6.57-.64-13.16-1.22-19.69-2.18-6.42-.95-12.79-2.21-19.14-3.58-7.71-1.66-15.43-3.31-23.02-5.45-9.71-2.73-19.46-5.5-28.89-9.05-11.97-4.5-23.91-9.25-35.37-14.9-12.39-6.11-24.21-13.38-36.26-20.17-.32-.18-.53-.57-.98-1.08,5.93-11.21,7.42-22.89,3.29-35.21-2.95,7.9-5.57,15.63-8.7,23.15-5.66,13.59-15.85,22.64-29.33,28.21-10.77,4.45-21.87,5.2-33.29,3.43-17.59-2.73-34.73-1.59-51.04,6.3-1.85.89-4.01,1.45-6.06,1.55-5.89.3-7.48-3.03-5.86-7.89,2.04-6.12,6.24-10.64,12.33-13.26,2.6-1.12,5.07-2.53,7.61-3.81-.09-.32-.19-.63-.28-.95-4.63,0-9.26-.11-13.88.03-4.31.13-8.6.72-12.91.76-5.64.06-7.24-2.53-5.57-7.96,2.14-6.92,7.79-9.6,13.85-11.72,2.91-1.02,5.99-1.51,8.98-2.31.79-.21,1.52-.64,2.27-.97,0-.31-.01-.62-.02-.93-4.29-1.02-8.58-2.04-12.87-3.08-1.55-.38-3.15-.67-4.61-1.29-3.05-1.29-3.62-5.4-1.07-7.77,3.89-3.62,8.65-5.63,13.85-5.8,6.41-.21,12.84.29,19.26.44,6.82.16,13.74.5,19.99-2.8,3.23-1.7,6.05-4.17,9.14-6.36-1.45-5.34-4.71-8.99-8.34-12.28-9.86-8.93-18.59-18.71-22.7-31.65-1.46-4.62-1.79-9.62-2.4-14.48-.3-2.36-.05-4.8-.05-7.45-5.97-2.86-11.79-5.74-17.68-8.47-19.33-8.97-36.81-20.8-53.14-34.4-13.65-11.36-25.95-24.02-36.37-38.42-9.18-12.68-16.33-26.46-19.48-41.89-1.99-9.74-1.98-19.63-.46-29.61,2.52-16.57,9.87-30.71,20.26-43.49,12.38-15.24,27.9-26.44,45.34-35.19,11.51-5.77,23.64-9.84,36.14-12.63,7.39-1.65,15.02-2.81,22.58-3.04,10.62-.32,21.37-.4,31.88.95,10.35,1.33,20.58,4.12,30.62,7.06,14.49,4.25,28.03,10.82,40.6,19.2,5.74,3.83,11.14,8.15,16.79,12.33,15.15-8.13,26.6-20.16,34.15-35.98,1.98-4.16,4.1-8.3,6.59-12.16.94-1.46,3.01-2.69,4.75-3,2.42-.42,3.36,1.98,3.94,3.86,1.96,6.34,3.6,12.72,1.59,19.44-.61,2.05-.7,4.26-1.13,7.08,1.09-.89,1.68-1.35,2.24-1.84,5.51-4.83,10.82-9.9,16.6-14.37,2.22-1.72,5.42-2.36,8.29-2.99,2.1-.46,3.36.72,3.81,3.15,1.89,10.21-2.59,18.45-8.16,26.18-4.33,6.01-9.27,11.58-13.92,17.35-.3.37-.5.81-.38,1.84,2.44-1.09,4.9-2.15,7.33-3.26,6.27-2.85,12.47-5.88,18.84-8.5,2.57-1.06,5.5-1.24,7.99.79,1.13,2.87-.85,4.76-2.31,6.45-9.41,10.97-21,18.87-34.58,23.8-7.18,2.61-14.42,5.1-21.78,7.69,2.65,6.41,6.01,12.42,7.56,18.87,1.56,6.53,1.32,13.48,1.92,21.02,4.61-2.69,9.19-5.25,13.66-8,8.21-5.05,14.14-12.37,19.75-20.01,2.16-2.94,4.72-3.29,6.78-.32,1.53,2.2,2.06,5.09,3,7.69.19.52.23,1.11.44,2.24,3.2-2.35,6.15-4.35,8.91-6.58,6.64-5.38,13.19-10.83,21.47-13.64,6.04-2.05,9.2.17,9.5,6.56.39,8.37-1.93,15.61-8.1,21.46-.43.41-.63,1.05-1.19,2.02,9.81-2.08,19.15-5.21,28.37.38.17,6.2-2.92,10.75-6.65,14.87-6.58,7.25-15.3,11.19-24.1,14.94-2.06.88-4.16,1.67-7.11,2.85,7.63,4.17,16.31,2.02,23,6.78-2.41,4.31-6.29,5.83-10.07,7.35-9.51,3.82-19.44,5.44-29.67,5.29-.37,0-.74.15-1.52.33,2.4,4.82,7.42,6.45,11.29,10.44-20.95,10.09-40.35,4.75-60.3-4.17ZM868.55,491.97c-15.16,85.42-53.06,159.01-113.99,220.38-61.08,61.53-134.83,98.95-220.72,112.38,1.11.47,2.08.52,3.04.46,10.41-.6,20.86-.87,31.22-1.94,9.12-.94,18.28-2.21,27.17-4.36,11.23-2.71,22.41-5.93,33.26-9.89,13.32-4.86,26.53-10.19,39.33-16.28,19.96-9.49,39-20.74,56.48-34.32,11.88-9.22,23.58-18.77,34.53-29.05,10.08-9.46,19.59-19.67,28.39-30.35,9.55-11.59,18.37-23.83,26.81-36.27,10.93-16.11,19.72-33.47,27.5-51.32,7.16-16.42,13.08-33.27,17.35-50.66,1.88-7.65,3.46-15.37,4.91-23.11,1.19-6.37,2.04-12.8,2.94-19.22.67-4.76,1.37-9.53,1.71-14.33.28-4.03.06-8.09.06-12.14ZM242.29,737.32c.63,4.11.82,8.17,1.91,11.96,4.22,14.67,13.42,25.66,26.33,33.43,6.32,3.81,13.96,2.92,17.28-4.59.11-.24.42-.39.72-.65,1.18.55,2.35,1.08,3.52,1.64,10.92,5.26,22.35,8.72,34.52,9.09,7.79.23,15.68.76,22.96-3.11,6.66-3.54,9-9.18,6.62-16.37-.68-2.06-1.6-4.04-2.44-6.14,3.17-.53,6.12-.99,9.06-1.51,8.72-1.54,12.87-8.94,9.46-17.02-2.39-5.68-6.28-10.23-11.18-13.9-3.02-2.26-6.15-4.37-9.32-6.6,2.39-3.9.85-7.08-1.62-9.54-3.31-3.3-6.82-6.64-10.81-9-12.46-7.38-26.43-10.65-40.37-13.84-2.4-.55-4.5.29-6.13,3.28,3.28,2.18,6.26,4.87,9.76,6.35,7.99,3.4,16.21,6.27,24.37,9.25,5.09,1.85,10.11,3.73,13.72,8.49-3.77,1.52-7.5,3.02-11.23,4.52.06.34.13.68.19,1.02,1.2.67,2.41,1.34,3.61,2,7.2,3.94,14.55,7.62,21.53,11.91,3.89,2.39,6.95,5.93,8.53,10.75-5.41,2.96-11.06,3.72-16.77,3.27-5.66-.45-11.26-1.6-17.27-2.51,6.43,7.45,14.66,13.25,17.75,23.85-2.36,1.19-4.58,2.79-7.05,3.45-7.08,1.89-14.22,1.56-21.45.33-11.26-1.92-21.47-6.06-30.77-12.71-2.05-1.46-3.96-3.88-7.73-3.13-.78,4.13-1.58,8.36-2.46,12.97-1.12-.43-2.04-.59-2.71-1.07-3.01-2.17-6.13-4.24-8.87-6.71-7.47-6.73-10.94-15.93-14.8-24.86-1.08-2.49-2.06-5.01-3.18-7.75-2.09,1.27-3.62,2.19-5.68,3.44ZM189.24,608.49c-.4-1.94-.62-3.94-1.22-5.82-2.31-7.26-9.72-10.97-16.76-8.51-8.55,3-13.46,13.39-10.31,21.84,1.85,4.97,7.07,8.86,11.66,9.22,9.65.76,16.62-8.84,16.62-16.73ZM97.44,561.7c-.31-4.97-5.33-9.38-10.33-8.58-8.71,1.4-16.77,7.99-17.76,17.15-.63,5.9,1.16,10.44,7.23,11.17,2.3.28,5.06-.4,7.12-1.54,5.81-3.21,9.4-8.58,12.45-14.29.64-1.19.87-2.6,1.29-3.91Z"/>
        <path class="cls-1" d="M726.76,557.63c5.57-8.05,8.36-17.57,18.25-19.76,4.83,4.16,6.7,11.38,5.16,16.47-3.92,12.92-5.17,25.89-1.77,39.28,1.5,5.93.65,11.69-3.78,17.15-13.55,16.73-30.78,28.28-50,37.14-9.24,4.26-18.65,8.3-28.29,11.5-9.7,3.22-19.96,3.22-30.11,2.25-6.37-.61-12.7-1.64-19.03-2.56-1.86-.27-3.67-.85-5.65-1.33-.18-8.76,1.21-16.97,4.72-24.75,6.61-14.62,17.59-24.87,31.92-31.81,8.34-4.04,16.97-6.87,26.18-8.11,5.01-.68,9.92-2.1,15.27-3.28-1.38-3.21-2.73-6.15-3.92-9.16-4.68-11.87-5.53-24.1-2.75-36.5.6-2.67,1.99-5.3,3.57-7.56,1.04-1.48,3.18-3.26,4.63-3.1,1.66.18,3.66,2.07,4.52,3.73,2.3,4.42,4.05,9.11,6.06,13.68.21.48.67.85,1.33,1.67.7-2.39,1.33-4.32,1.84-6.28,1.6-6.17,4.07-11.92,7.82-17.09,1.61-2.21,3.7-3.96,6.5-3.67,2.83.29,4.19,2.59,4.78,5.18.69,2.99,1.46,6,1.73,9.04.5,5.63.65,11.29,1,17.87Z"/>
        <path class="cls-1" d="M549.71,436.59c.15,2.56.06,5.17.51,7.67,1.44,8.11-.73,15.52-4.34,22.57-2.49,4.86-7.17,5.06-9.71.3-2.95-5.53-5.61-11.3-7.62-17.23-4.48-13.23-13.29-22.53-24.77-29.99-6.7-4.35-13.32-9.09-19.03-14.62-8.84-8.56-14.41-19.35-17.83-31.2-2.59-8.99-4.63-18.09-3.95-27.5.73-10.23,3.44-19.85,9.92-28.48,4.34.72,8.64,1.43,12.94,2.14.31.79.71,1.33.72,1.88.18,8.75,9.49,12.43,15.94,13.15,4.55.51,9.2.1,13.98.1,4.9,8.6,13.16,7.31,20.96,6.06,8.43-1.36,16.7-3.64,25.14-5.53-3.67,6.26-7.69,12.91-13.71,17.62-6.01,4.71-12.88,8.33-19.6,12.57.53.78,1.25,2.06,2.2,3.16,8.96,10.42,19.23,18.86,32.55,23.41,10.46,3.57,20.61,8.13,28.94,15.68,5.49,4.98,9.69,10.88,10.06,18.88-1.17.77-2.15,1.41-3.26,2.13-9.16-3.21-17.5-8.86-28.12-9.27,2.83,4.4,5.41,8.28,7.86,12.23,4.15,6.69,7.08,13.87,8.09,21.73.41,3.19-.6,6.12-3.27,7.91-1.18.79-3.62,1.17-4.62.48-4-2.75-7.87-5.79-11.41-9.12-5.97-5.62-11.66-11.54-17.47-17.33-.36.21-.72.42-1.08.63Z"/>
        <path class="cls-1" d="M98.38,729.38c6.95,4.22,13.59,8.56,20.51,12.38,7.44,4.11,15.11,7.82,22.76,11.53,4.34,2.11,6.06,5.45,5.14,10.34-1.94,10.23-7.78,17.65-16.52,22.91-7.81,4.7-15.73,9.21-23.6,13.82-4.74,2.78-9.39,5.71-14.23,8.32-1.76.95-3.92,1.17-5.57,1.63-3.97-3.03-3.1-6.69-2.54-10.07.51-3.04,1.63-5.97,2.46-8.95.12-.44.06-.93.08-1.28-5.31,2.76-10.51,5.49-15.74,8.18-4.26,2.18-6.95.47-7.16-4.22-.35-7.94,2.93-14.4,7.91-20.2,2.92-3.4,5.93-6.72,8.6-10.72-1.6.51-3.16,1.26-4.79,1.48-4.34.59-8.73,1.46-13.05,1.26-4.79-.23-6.71-4-4.04-8.18,2.71-4.24,6-8.3,9.72-11.67,8.67-7.85,19.31-12.39,30.05-16.54Z"/>
        <path class="cls-1" d="M823.2,169.78c-13.98-12.16-27.44-23.88-41.55-36.16,1.29-4.42,2.35-9.42,4.19-14.11,3.91-9.95,7.39-20.14,13.63-29,4.9-6.97,10.69-13.06,18.15-17.32,2.48-1.42,5.2-2.88,8.19-.37v22.77c4.32-2.5,8.72-5.06,13.81-8,1.5,3.7,3.3,6.44,3.64,9.35.5,4.41.61,9.07-.26,13.4-1.11,5.54-3.37,10.85-5.09,16.27-.16.52-.02,1.13-.02,1.87,3.23-1.26,6.2-2.5,9.24-3.55,1.11-.38,2.37-.44,3.56-.43,2.49.02,3.51,1.33,2.86,3.68-3.66,13.14-9.81,24.64-21.05,33.02-3.43,2.55-6.32,5.82-9.29,8.6Z"/>
      </g>
    </g>
  </g>
</svg>